# xmcd
#
# Track frame offsets:
#	150
#	16095
#	32165
#	45880
#	69812
#	89432
#	108557
#	125840
#	143560
#	171375
#	192165
#	208660
#	227040
#	245045
#	263597
#	281245
#	300032
#	318980
# Disc length: 4437 seconds
# Revision: 9
# Processed by: cddbd v1.5.1PL2 Copyright (c) Steve Scherf et al.
#
# Submitted via: libkcddb 0.31
#
DISCID=f3115312
DTITLE=이미연 - 연가(戀歌)
DYEAR=2001
DGENRE=???
TTITLE0=최호섭 - 세월이 가면
TTITLE1=강수지 - 흩어진 나날들
TTITLE2=김현식 - 추억만들기
TTITLE3=김현철 - 춘천가는 기차
TTITLE4=이소라 - 기억해 줘
TTITLE5=이승철 - 안녕이라고 말하지 마
TTITLE6=고병희 - 유리창엔 비
TTITLE7=박강성 - 장남감 병정
TTITLE8=김종서 - 겨울비
TTITLE9=김정민 - 슬픈 언약식
TTITLE10=임백천 - 마음에 쓰는 편지
TTITLE11=장혜리 - 내게 남은 사랑을 드릴께요
TTITLE12=이덕진 - 내가 아는 한가지
TTITLE13=최재훈 - 널 보낸후에
TTITLE14=하덕규 - 가시나무
TTITLE15=염상아 - 차라리
TTITLE16=안재욱 - Forever
TTITLE17=박상민 - 하나의 사랑
EXTD=YEAR: 2001 ID3G:   0
EXTT0=
EXTT1=
EXTT2=
EXTT3=
EXTT4=
EXTT5=
EXTT6=
EXTT7=
EXTT8=
EXTT9=
EXTT10=
EXTT11=
EXTT12=
EXTT13=
EXTT14=
EXTT15=
EXTT16=
EXTT17=
PLAYORDER=
